#!OML:ASF F:\VICON\USERDATA\INSTALL\SteveWalk\SteveWalk.ASF
:FULLY-SPECIFIED
:DEGREES
62
root -0.398195 16.0992 -32.9001 16.4361 -2.88698 5.90928
lowerback -14.593 0.787353 -7.72432
upperback -4.9469 2.22839 -2.6303
thorax 2.73166 1.12794 1.9537
lowerneck -5.00032 -1.04328 0.625129
upperneck 6.51166 -1.41728 -0.393377
head 2.94017 -0.702277 -0.292934
rclavicle 1.51426e-014 -8.74653e-015
rhumerus -30.6189 1.93961 -87.9798
rradius 51.4682
rwrist -14.463
rhand -16.3853 -34.0903
rfingers 7.12502
rthumb 9.82844 -63.841
lclavicle 1.51426e-014 -8.74653e-015
lhumerus -72.027 39.414 29.5005
lradius 11.6168
lwrist -43.8646
lhand -13.6523 -17.9473
lfingers 7.12502
lthumb 12.4643 11.661
rfemur -18.7786 -4.70176 12.0628
rtibia 69.2985
rfoot 8.75439 8.42506
rtoes -21.8894
lfemur -43.2025 -2.52113 -27.2176
ltibia 39.0053
lfoot -12.6069 -2.63853
ltoes -7.25823
63
root -0.392016 16.1245 -32.6916 16.2933 -2.81858 5.86605
lowerback -14.442 0.673787 -7.61426
upperback -4.91924 2.04785 -2.58455
thorax 2.69852 1.03872 1.90846
lowerneck -4.64051 -0.983907 0.564652
upperneck 6.33894 -1.33707 -0.307233
head 2.81504 -0.661201 -0.247756
rclavicle -1.49628e-014 1.63003e-014
rhumerus -31.3446 1.29318 -88.2219
rradius 49.8907
rwrist -13.7757
rhand -16.4841 -34.1316
rfingers 7.12502
rthumb 9.73313 -63.8867
lclavicle -1.49628e-014 1.63003e-014
lhumerus -70.0772 39.3714 32.2581
lradius 11.9967
lwrist -41.2562
lhand -13.8143 -17.6936
lfingers 7.12502
lthumb 12.3082 11.9242
rfemur -20.4887 -5.16359 12.2261
rtibia 71.1895
rfoot 7.25637 7.46281
rtoes -20.5654
lfemur -42.1787 -2.54913 -27.2442
ltibia 39.0527
lfoot -13.3829 -2.3254
ltoes -9.17109
64
root -0.383664 16.1518 -32.4864 16.2572 -2.90067 5.92802
lowerback -14.5178 0.540036 -7.57198
upperback -4.80751 1.87914 -2.55827
thorax 2.87309 0.946295 1.88932
lowerneck -4.5329 -0.794613 0.505848
upperneck 6.19337 -1.08381 -0.233607
head 2.7476 -0.534514 -0.202926
rclavicle 2.77118e-014 -9.93923e-015
rhumerus -31.8591 0.862215 -88.4818
rradius 48.2128
rwrist -13.0168
rhand -16.7825 -33.9831
rfingers 7.12502
rthumb 9.44521 -63.7515
lclavicle 2.77118e-014 -9.93923e-015
lhumerus -68.5053 39.9076 34.1342
lradius 12.2119
lwrist -39.6023
lhand -14.4112 -17.0937
lfingers 7.12502
lthumb 11.7326 12.5577
rfemur -22.3169 -5.34358 12.2801
rtibia 72.8353
rfoot 5.72341 6.54205
rtoes -19.3774
lfemur -41.2157 -2.63261 -27.3811
ltibia 38.9924
lfoot -13.9926 -1.58518
ltoes -12.5349
65
root -0.37218 16.181 -32.2763 16.3458 -3.0014 5.78228
lowerback -14.8677 0.473365 -7.22549
upperback -4.67132 1.7833 -2.52525
thorax 3.2264 0.883105 1.72478
lowerneck -4.58858 -0.698662 0.66716
upperneck 6.17754 -0.957532 -0.379439
head 2.75191 -0.472875 -0.273061
rclavicle -2.9108e-014 3.85642e-014
rhumerus -32.1534 0.091853 -88.522
rradius 46.408
rwrist -12.9473
rhand -16.7497 -34.157
rfingers 7.12502
rthumb 9.47682 -63.9239
lclavicle -2.9108e-014 3.85642e-014
lhumerus -66.7499 40.5686 35.9228
lradius 12.3009
lwrist -38.4006
lhand -14.8984 -16.6039
lfingers 7.12502
lthumb 11.2628 13.0737
rfemur -24.2201 -5.42163 12.6101
rtibia 74.1844
rfoot 4.36784 5.82404
rtoes -18.5334
lfemur -40.2903 -2.77158 -27.2733
ltibia 38.863
lfoot -14.7656 -0.752435
ltoes -12.2682
66
root -0.363573 16.2167 -32.067 16.4315 -3.1203 5.34819
lowerback -14.9761 0.508609 -6.61653
upperback -4.6769 1.7471 -2.45453
thorax 3.30188 0.862397 1.4552
lowerneck -4.77011 -0.685721 0.96009
upperneck 6.47867 -0.944813 -0.64388
head 2.886 -0.468081 -0.411043
rclavicle -1.64432e-014 7.55382e-015
rhumerus -32.7408 -0.862344 -88.4906
rradius 44.3098
rwrist -12.7938
rhand -16.5651 -32.2165
rfingers 7.12502
rthumb 9.65499 -61.9752
lclavicle -1.64432e-014 7.55382e-015
lhumerus -64.1897 40.4554 38.895
lradius 12.5622
lwrist -36.2988
lhand -15.1207 -16.0626
lfingers 7.12502
lthumb 11.0484 13.6266
rfemur -26.1311 -5.36054 13.3279
rtibia 75.2433
rfoot 3.29967 5.14232
rtoes -17.8145
lfemur -39.369 -2.74939 -26.856
ltibia 38.7077
lfoot -15.6186 -0.503816
ltoes -10.3083
67
root -0.356142 16.2506 -31.8614 16.5022 -3.23996 4.81984
lowerback -14.8761 0.525128 -5.9915
upperback -4.82288 1.6524 -2.26908
thorax 3.1161 0.823026 1.28071
lowerneck -4.63133 -0.574076 0.988231
upperneck 6.71026 -0.788904 -0.738419
head 2.93958 -0.392664 -0.440747
rclavicle 1.00697e-014 1.49089e-014
rhumerus -33.734 -1.55053 -88.4562
rradius 42.582
rwrist -12.2078
rhand -16.9489 -33.336
rfingers 7.12502
rthumb 9.28463 -63.1116
lclavicle 1.00697e-014 1.49089e-014
lhumerus -61.9336 40.0833 41.8256
lradius 13.0308
lwrist -34.207
lhand -15.3438 -15.2912
lfingers 7.12502
lthumb 10.8332 14.4094
rfemur -28.0169 -5.18335 14.153
rtibia 76.07
rfoot 2.21054 4.50151
rtoes -16.908
lfemur -38.4786 -2.62302 -26.3552
ltibia 38.5299
lfoot -16.0791 -0.590905
ltoes -8.5622
68
root -0.347608 16.2802 -31.6529 16.6598 -3.37596 4.33286
lowerback -14.8984 0.529428 -5.46991
upperback -5.0326 1.56318 -2.03414
thorax 2.92218 0.786522 1.21807
lowerneck -4.10727 -0.42399 0.901017
upperneck 6.58893 -0.576849 -0.745626
head 2.80181 -0.289264 -0.416306
rclavicle -1.40168e-014 1.39149e-015
rhumerus -34.8945 -2.27887 -88.1804
rradius 40.8955
rwrist -11.3877
rhand -17.3462 -34.5502
rfingers 7.12502
rthumb 8.90127 -64.3424
lclavicle -1.40168e-014 1.39149e-015
lhumerus -60.4629 40.2342 43.5326
lradius 13.2741
lwrist -33.4494
lhand -15.4898 -15.0475
lfingers 7.12502
lthumb 10.6923 14.6605
rfemur -29.9719 -4.99647 14.9352
rtibia 76.627
rfoot 1.23118 4.19556
rtoes -16.0257
lfemur -37.6531 -2.4357 -25.9319
ltibia 38.2967
lfoot -16.5072 -0.587344
ltoes -7.1008
